# xmcd
#
# Track frame offsets:
#	150
#	6162
#	21740
#	29980
#	47310
#	63082
#	77260
#	89927
#	97045
#	107525
#	118842
#	128232
#	131600
#	142112
#	142755
#	155970
#	162992
#	167010
#	183945
#	185580
#	195417
#	202707
#	210330
#	226355
#	239720
#	252890
#	259690
#	273155
#	276992
#	287582
#
# Disc length: 3942 seconds
# Revision: 0
# Processed by: cddbd v1.5.2PL0 Copyright (c) Steve Scherf et al.
# Submitted via: dBpowerAMP V12.0
#
DISCID=b50f641e
DTITLE=Various Artist - King of the Dobro
DYEAR=1996
DGENRE=Country
TTITLE0=Josh Graves - Introduction
TTITLE1=Josh Graves - Reubin's Train
TTITLE2=Josh Graves - Katy Hill
TTITLE3=Marty Stuart - Marty Stuart Talks
TTITLE4=Josh Graves - Cuttin' the Grass
TTITLE5=Josh Graves - Border Town Blues
TTITLE6=Josh Graves - Ain't They Crazy
TTITLE7=Lance LeRoy - Lance Leroy Talks
TTITLE8=Josh Graves - Little Burma Through the Bayou
TTITLE9=Josh Graves - Gretna Green
TTITLE10=Josh Graves - Earl's Breakdown
TTITLE11=Josh Graves - Martha White Theme (You Bake Right)
TTITLE12=Josh Graves - Shig-A-Dig
TTITLE13=Josh Graves - Introduction to "The Boys from North Carolina"
TTITLE14=Josh Graves - The Boys from North Carolina
TTITLE15=Josh Graves - Little Home in West Virginia
TTITLE16=Joe Wilson - Joe Wilson Talks
TTITLE17=Josh Graves - Rock Away
TTITLE18=Bill Monroe - Bill Monroe Talks
TTITLE19=Josh Graves - Wheel Hoss
TTITLE20=Josh Graves - Dobros in Scotland
TTITLE21=Mac Wiseman - Mac Wiseman Talks
TTITLE22=Josh Graves - Reading Your Letter Again
TTITLE23=Josh Graves - In the Jailhouse Now
TTITLE24=Josh Graves - Seven Bridges Road
TTITLE25=Jerry Douglas - Jerry Douglas Talks
TTITLE26=Josh Graves - House of Scruggs
TTITLE27=Jerry Douglas - Jerry Douglas Talks
TTITLE28=Josh Graves - Fireball
TTITLE29=Josh Graves - Conclusion
EXTD=
EXTT0=
EXTT1=
EXTT2=
EXTT3=
EXTT4=
EXTT5=
EXTT6=
EXTT7=
EXTT8=
EXTT9=
EXTT10=
EXTT11=
EXTT12=
EXTT13=
EXTT14=
EXTT15=
EXTT16=
EXTT17=
EXTT18=
EXTT19=
EXTT20=
EXTT21=
EXTT22=
EXTT23=
EXTT24=
EXTT25=
EXTT26=
EXTT27=
EXTT28=
EXTT29=
PLAYORDER=
